<?xml version="1.0" standalone="no"?>
<!DOCTYPE svg PUBLIC "-//W3C//DTD SVG 20010904//EN"
 "http://www.w3.org/TR/2001/REC-SVG-20010904/DTD/svg10.dtd">
<svg version="1.0" xmlns="http://www.w3.org/2000/svg"
 width="500.000000pt" height="500.000000pt" viewBox="0 0 500.000000 500.000000"
 preserveAspectRatio="xMidYMid meet">
<metadata>
Created by potrace 1.14, written by Peter Selinger 2001-2017
</metadata>
<g transform="translate(0.000000,500.000000) scale(0.100000,-0.100000)"
fill="#000000" stroke="none">
<path d="M2240 4985 c-579 -64 -1091 -308 -1501 -715 -424 -421 -672 -951
-729 -1555 -71 -766 241 -1557 817 -2071 878 -782 2147 -859 3108 -189 944
659 1313 1890 889 2965 -282 712 -894 1269 -1628 1480 -305 88 -650 119 -956
85z m1026 -660 c60 -18 122 -67 140 -111 17 -40 18 -124 3 -195 -61 -283 -387
-538 -1031 -804 l-118 -49 -1 -95 c0 -53 -4 -145 -9 -206 -4 -60 -7 -111 -6
-112 1 -1 55 20 120 47 268 114 419 153 596 154 87 0 115 -4 165 -23 107 -42
155 -116 155 -238 0 -114 -43 -205 -145 -312 -157 -164 -376 -289 -740 -422
l-130 -47 -7 -243 c-15 -545 -43 -744 -125 -902 -72 -136 -177 -196 -289 -162
-147 43 -267 303 -333 725 -57 361 -71 656 -59 1280 12 691 43 1052 98 1161
66 129 366 291 760 411 194 58 494 132 600 147 41 6 86 13 100 15 45 8 206 -4
256 -19z"/>
</g>
</svg>
