<?xml version="1.0" encoding="iso-8859-1"?>
<!-- Generator: Adobe Illustrator 19.0.0, SVG Export Plug-In . SVG Version: 6.00 Build 0)  -->
<svg version="1.1" id="Capa_1" xmlns="http://www.w3.org/2000/svg" xmlns:xlink="http://www.w3.org/1999/xlink" x="0px" y="0px"
	 viewBox="0 0 512 512" style="enable-background:new 0 0 512 512;" xml:space="preserve">
<linearGradient id="SVGID_1_" gradientUnits="userSpaceOnUse" x1="0" y1="258.0005" x2="512.0002" y2="258.0005" gradientTransform="matrix(1 0 0 -1 0 514.0006)">
	<stop  offset="0" style="stop-color:#00F2FE"/>
	<stop  offset="0.021" style="stop-color:#03EFFE"/>
	<stop  offset="0.293" style="stop-color:#24D2FE"/>
	<stop  offset="0.554" style="stop-color:#3CBDFE"/>
	<stop  offset="0.796" style="stop-color:#4AB0FE"/>
	<stop  offset="1" style="stop-color:#4FACFE"/>
</linearGradient>
<path style="fill:url(#SVGID_1_);" d="M492,222c11.046,0,20-8.954,20-20V50c0-6.281-2.95-12.197-7.967-15.975
	c-5.018-3.779-11.519-4.982-17.555-3.248c-23.165,6.653-52.691,4.776-90.074,2.398C372.997,31.687,346.467,30,316,30
	c-23.877,0-45.329,10.528-60,27.169C241.329,40.528,219.877,30,196,30c-30.467,0-56.997,1.687-80.404,3.176
	c-37.381,2.377-66.909,4.254-90.074-2.398c-6.038-1.734-12.537-0.531-17.555,3.248C2.95,37.804,0,43.72,0,50v331.796
	c-0.055,21.407,8.241,41.543,23.358,56.7C38.477,453.653,58.592,462,80,462h156c0,11.046,8.954,20,20,20c11.046,0,20-8.954,20-20
	h156c44.112,0,80-35.888,80-80v-80c0-11.046-8.954-20-20-20s-20,8.954-20,20c0,22.056-17.944,40-40,40H286
	c-3.424,0-6.768,0.347-10,1.006V110c0-22.056,17.944-40,40-40c29.196,0,55.053,1.645,77.865,3.095
	c29.834,1.897,55.131,3.505,78.135,1.009V202C472,213.046,480.954,222,492,222z M40,74.105c23.003,2.495,48.302,0.887,78.135-1.01
	C140.948,71.645,166.804,70,196,70c22.056,0,40,17.944,40,40v233.006c-3.232-0.659-6.576-1.006-10-1.006H80
	c-22.056,0-40-17.944-40-40V74.105z M80,422c-10.704,0-20.762-4.174-28.321-11.752C44.12,402.67,39.973,392.602,40,381.847v-10.61
	C51.777,378.068,65.434,382,80,382h146c5.514,0,10,4.486,10,10v30H80z M286,382h146c14.566,0,28.223-3.932,40-10.763V382
	c0,22.056-17.944,40-40,40H276v-30C276,386.486,280.487,382,286,382z"/>
<g>
</g>
<g>
</g>
<g>
</g>
<g>
</g>
<g>
</g>
<g>
</g>
<g>
</g>
<g>
</g>
<g>
</g>
<g>
</g>
<g>
</g>
<g>
</g>
<g>
</g>
<g>
</g>
<g>
</g>
</svg>
