<svg viewBox="0 0 512 512" xmlns="http://www.w3.org/2000/svg" xmlns:xlink="http://www.w3.org/1999/xlink"><linearGradient id="a" gradientTransform="matrix(1 0 0 -1 0 -12310)" gradientUnits="userSpaceOnUse" x1="0" x2="512" y1="-12566" y2="-12566"><stop offset="0" stop-color="#00f1ff"/><stop offset=".231" stop-color="#00d8ff"/><stop offset=".5138" stop-color="#00c0ff"/><stop offset=".7773" stop-color="#00b2ff"/><stop offset="1" stop-color="#00adff"/></linearGradient><path d="m512 256c0 141.386719-114.613281 256-256 256s-256-114.613281-256-256 114.613281-256 256-256 256 114.613281 256 256zm0 0" fill="url(#a)"/><path d="m394.253906 268.160156c8.285156 0 15-6.714844 15-15v-164.660156c0-8.285156-6.714844-15-15-15h-249.117187c-23.925781 0-43.390625 19.464844-43.390625 43.390625v278.21875c0 23.925781 19.464844 43.390625 43.390625 43.390625h249.121093c8.28125 0 15-6.714844 15-15s-6.71875-15-15-15h-249.121093c-7.382813 0-13.390625-6.007812-13.390625-13.390625s6.007812-13.390625 13.390625-13.390625h249.121093c8.28125 0 15-6.714844 15-15v-42.582031c0-8.285157-6.71875-15-15-15-8.285156 0-15 6.714843-15 15v27.582031h-190.734374v-80.832031c0-8.285157-6.714844-15-15-15-8.285157 0-15 6.714843-15 15v80.832031h-13.390626c-4.671874 0-9.167968.753906-13.390624 2.125v-236.953125c0-7.382813 6.007812-13.390625 13.390624-13.390625h13.390626v111.335938c0 5.699218 3.230468 10.902343 8.335937 13.4375 5.105469 2.53125 11.203125 1.953124 15.742187-1.496094l26.410157-20.074219 26.410156 20.074219c2.660156 2.023437 5.859375 3.058594 9.078125 3.058594 2.269531 0 4.550781-.515626 6.664062-1.5625 5.105469-2.53125 8.332032-7.738282 8.332032-13.4375v-111.335938h119.757812v149.660156c0 8.285156 6.71875 15 15 15zm-164.753906-83.566406-11.410156-8.671875c-5.367188-4.078125-12.789063-4.078125-18.152344 0l-11.414062 8.671875v-81.09375h40.976562zm0 0" fill="#fff"/></svg>