<svg viewBox="0 0 512 512" xmlns="http://www.w3.org/2000/svg" xmlns:xlink="http://www.w3.org/1999/xlink"><linearGradient id="a" gradientTransform="matrix(1 0 0 -1 0 -12310)" gradientUnits="userSpaceOnUse" x1="0" x2="512" y1="-12566" y2="-12566"><stop offset="0" stop-color="#00f1ff"/><stop offset=".231" stop-color="#00d8ff"/><stop offset=".5138" stop-color="#00c0ff"/><stop offset=".7773" stop-color="#00b2ff"/><stop offset="1" stop-color="#00adff"/></linearGradient><path d="m512 256c0 141.386719-114.613281 256-256 256s-256-114.613281-256-256 114.613281-256 256-256 256 114.613281 256 256zm0 0" fill="url(#a)"/><path d="m418 241.933594c8.285156 0 15-6.71875 15-15v-104.339844c0-4.710938-2.214844-9.148438-5.976562-11.980469-3.761719-2.835937-8.640626-3.738281-13.164063-2.4375-15.691406 4.503907-35.863281 3.222657-61.398437 1.601563-16.085938-1.023438-34.320313-2.183594-55.273438-2.183594-16.257812 0-30.917969 6.945312-41.1875 18.019531-10.269531-11.074219-24.929688-18.019531-41.1875-18.019531-20.953125 0-39.1875 1.160156-55.273438 2.183594-25.539062 1.621094-45.710937 2.90625-61.398437-1.601563-4.527344-1.300781-9.402344-.398437-13.164063 2.4375-3.761718 2.832031-5.976562 7.269531-5.976562 11.980469v227.753906c-.039062 15.035156 5.789062 29.179688 16.40625 39.824219s24.746094 16.507813 39.78125 16.507813h105.875c.648438 7.6875 7.082031 13.726562 14.9375 13.726562s14.289062-6.039062 14.9375-13.726562h105.875c30.984375 0 56.1875-25.207032 56.1875-56.1875v-54.917969c0-8.28125-6.714844-15-15-15-8.28125 0-15 6.71875-15 15 0 14.441406-11.746094 26.1875-26.1875 26.1875h-100.21875c-1.902344 0-3.769531.15625-5.59375.445312v-158.425781c0-14.441406 11.746094-26.1875 26.1875-26.1875 20 0 37.726562 1.125 53.371094 2.121094 19.933594 1.269531 36.929687 2.347656 52.441406.835937v86.378907c0 8.285156 6.714844 15.003906 15 15.003906zm-309-101.382813c15.507812 1.511719 32.507812.433594 52.445312-.835937 15.640626-.992188 33.367188-2.121094 53.367188-2.121094 14.441406 0 26.1875 11.746094 26.1875 26.1875v158.425781c-1.824219-.289062-3.691406-.441406-5.59375-.441406h-100.21875c-14.441406 0-26.1875-11.75-26.1875-26.1875zm7.644531 228.433594c-4.945312-4.960937-7.664062-11.554687-7.644531-18.597656v-5.121094c7.824219 4.140625 16.734375 6.496094 26.1875 6.496094h100.21875c3.085938 0 5.59375 2.507812 5.59375 5.59375v19.320312h-105.8125c-7.007812.003907-13.59375-2.730469-18.542969-7.691406zm159.949219-17.222656h100.21875c9.453125 0 18.363281-2.355469 26.1875-6.496094v5.226563c0 14.4375-11.746094 26.1875-26.1875 26.1875h-105.8125v-19.324219c0-3.082031 2.507812-5.59375 5.59375-5.59375zm0 0" fill="#fff"/></svg>