<svg height="512pt" viewBox="0 0 512 512" width="512pt" xmlns="http://www.w3.org/2000/svg" xmlns:xlink="http://www.w3.org/1999/xlink"><linearGradient id="a" gradientUnits="userSpaceOnUse" x1="0" x2="512" y1="256" y2="256"><stop offset="0" stop-color="#00f1ff"/><stop offset=".231" stop-color="#00d8ff"/><stop offset=".5138" stop-color="#00c0ff"/><stop offset=".7773" stop-color="#00b2ff"/><stop offset="1" stop-color="#00adff"/></linearGradient><path d="m512 256c0 141.386719-114.613281 256-256 256s-256-114.613281-256-256 114.613281-256 256-256 256 114.613281 256 256zm0 0" fill="url(#a)"/><path d="m413.390625 209.75c-.40625-19.175781-8.214844-37.199219-21.984375-50.75-13.769531-13.546875-31.910156-21.070312-51.089844-21.183594-2.648437-.019531-5.300781.109375-7.929687.375-17.390625-24.667968-45.761719-39.601562-76.386719-39.601562-30.628906 0-58.996094 14.933594-76.390625 39.601562-1.972656-.199218-3.953125-.320312-5.941406-.363281-19.617188-.410156-38.355469 7.054687-52.6875 21.003906-14.320313 13.941407-22.269531 32.433594-22.390625 52.066407-.191406 32.253906 20.855468 60.46875 50.6875 70.289062v93.085938c0 21.578124 17.558594 39.136718 39.136718 39.136718h138.1875c21.578126 0 39.136719-17.558594 39.136719-39.136718 0-8.285157-6.714843-15-15-15-8.285156 0-15 6.714843-15 15 0 5.035156-4.101562 9.136718-9.136719 9.136718h-138.1875c-5.035156 0-9.136718-4.101562-9.136718-9.136718v-45.949219h122.582031c8.285156 0 15-6.714844 15-15 0-8.28125-6.714844-15-15-15h-122.582031v-29c0-7.492188-5.527344-13.835938-12.953125-14.859375-21.640625-2.980469-37.863281-21.632813-37.730469-43.386719.066406-11.535156 4.796875-22.457031 13.3125-30.75 8.527344-8.304687 19.578125-12.773437 31.140625-12.503906 3.433594.070312 6.84375.542969 10.136719 1.40625 6.683594 1.75 13.695312-1.292969 16.988281-7.363281 11.121094-20.527344 32.511719-33.277344 55.828125-33.277344 17.695312 0 34.28125 7.351562 46.109375 19.867187-21.398437 12.796875-35.765625 36.191407-35.765625 62.890625 0 8.285156 6.714844 15 15 15s15-6.714844 15-15c0-23.839844 19.394531-43.230468 43.230469-43.230468.878906 0 1.738281-.09375 2.578125-.238282 22.449218 1.1875 40.761718 19.847656 41.246094 42.511719.457031 21.402344-14.441407 39.796875-35.425782 43.738281-7.09375 1.328125-12.234375 7.523438-12.234375 14.738282v44.457031c0 8.285156 6.714844 15 15 15 8.285157 0 15-6.714844 15-15v-33.105469c28.878907-10.75 48.332031-38.640625 47.652344-70.46875zm0 0" fill="#fff"/></svg>