<?xml version="1.0" encoding="iso-8859-1"?>
<!-- Generator: Adobe Illustrator 19.0.0, SVG Export Plug-In . SVG Version: 6.00 Build 0)  -->
<svg version="1.1" id="Capa_1" xmlns="http://www.w3.org/2000/svg" xmlns:xlink="http://www.w3.org/1999/xlink" x="0px" y="0px"
	 viewBox="0 0 512 512" style="enable-background:new 0 0 512 512;" xml:space="preserve">
<linearGradient id="SVGID_1_" gradientUnits="userSpaceOnUse" x1="0" y1="258" x2="512" y2="258" gradientTransform="matrix(1 0 0 -1 0 514)">
	<stop  offset="0" style="stop-color:#00F2FE"/>
	<stop  offset="0.021" style="stop-color:#03EFFE"/>
	<stop  offset="0.293" style="stop-color:#24D2FE"/>
	<stop  offset="0.554" style="stop-color:#3CBDFE"/>
	<stop  offset="0.796" style="stop-color:#4AB0FE"/>
	<stop  offset="1" style="stop-color:#4FACFE"/>
</linearGradient>
<path style="fill:url(#SVGID_1_);" d="M93,189.079c11.046,0,20-8.954,20-20v-45.954l32.767,11.671
	C141.993,146.029,134,177.028,134,238.079c0,10.294,7.813,18.906,18.058,19.905c0.466,0.046,46.218,4.785,92.894,32.449
	c3.626,3.029,8.195,4.649,12.841,4.649c0.069,0,0.139-0.006,0.208-0.007c0.069,0,0.139,0.007,0.208,0.007
	c4.644,0,9.212-1.619,12.838-4.647c46.311-27.433,92.466-32.407,92.896-32.451c10.244-0.999,18.058-9.611,18.058-19.905
	c0-60.862-7.943-91.856-11.731-103.176l46.384-16.641C432.904,112.434,443,99.453,443,84.386s-10.096-28.049-26.263-33.848
	L295.209,6.328c-23.365-8.382-50.169-8.383-73.577,0.015L99.348,50.508c-12.433,4.459-21.256,13.106-24.719,23.668
	C73.584,76.602,73,79.271,73,82.079v87C73,180.125,81.954,189.079,93,189.079z M341.769,221.136
	c-19.094,3.89-50.76,12.492-83.769,30.688c-33.009-18.195-64.675-26.798-83.769-30.688c1.24-44.15,7.114-66.265,9.235-72.912
	l38.206,13.608c11.684,4.191,24.226,6.287,36.768,6.287c12.543,0,25.085-2.096,36.769-6.287h0.001l37.386-13.412
	C334.771,155.311,340.541,177.434,341.769,221.136z M235.179,43.978c14.565-5.225,31.959-5.226,46.439-0.03L392.702,84.36
	l-110.999,39.821c-14.565,5.224-31.957,5.226-46.567-0.016l-62.01-22.086h86.657c11.046,0,20-8.954,20-20s-8.954-20-20-20h-74.721
	L235.179,43.978z M512,152.079v100c0,11.046-8.954,20-20,20s-20-8.954-20-20v-100c0-5.823-1.217-11.428-3.617-16.657
	c-4.607-10.038-0.205-21.912,9.834-26.52c10.038-4.606,21.912-0.204,26.52,9.834C509.556,129.237,512,140.455,512,152.079z
	 M512,352.079c0,44.112-35.888,80-80,80H276v39.878h70c11.046,0,20,8.954,20,20s-8.954,20-20,20H166c-11.046,0-20-8.954-20-20
	s8.954-20,20-20h70v-39.878H80c-44.112,0-80-35.888-80-80v-200c0-11.624,2.444-22.843,7.264-33.343
	c4.607-10.038,16.479-14.444,26.52-9.834c10.039,4.607,14.441,16.481,9.834,26.52c-2.4,5.229-3.617,10.834-3.617,16.657v200
	c0,22.056,17.944,40,40,40h352c22.056,0,40-17.944,40-40c0-11.046,8.954-20,20-20S512,341.034,512,352.079z"/>
<g>
</g>
<g>
</g>
<g>
</g>
<g>
</g>
<g>
</g>
<g>
</g>
<g>
</g>
<g>
</g>
<g>
</g>
<g>
</g>
<g>
</g>
<g>
</g>
<g>
</g>
<g>
</g>
<g>
</g>
</svg>
