<svg viewBox="0 0 512 512" xmlns="http://www.w3.org/2000/svg" xmlns:xlink="http://www.w3.org/1999/xlink"><linearGradient id="a" gradientTransform="matrix(1 0 0 -1 0 -16582)" gradientUnits="userSpaceOnUse" x1="0" x2="512" y1="-16838" y2="-16838"><stop offset="0" stop-color="#00f1ff"/><stop offset=".231" stop-color="#00d8ff"/><stop offset=".5138" stop-color="#00c0ff"/><stop offset=".7773" stop-color="#00b2ff"/><stop offset="1" stop-color="#00adff"/></linearGradient><path d="m512 256c0 141.386719-114.613281 256-256 256s-256-114.613281-256-256 114.613281-256 256-256 256 114.613281 256 256zm0 0" fill="url(#a)"/><g fill="#fff"><path d="m138.585938 208.3125c8.28125 0 15-6.714844 15-15v-32.261719l22.265624 7.933594c-2.800781 8.582031-8.324218 30.960937-8.324218 74.03125 0 7.695313 5.855468 14.144531 13.507812 14.925781.339844.035156 33.472656 3.621094 66.707032 23.308594 2.707031 2.230469 6.101562 3.421875 9.550781 3.421875.050781 0 .097656-.003906.148437-.007813.046875 0 .097656.007813.148438.007813 3.449218 0 6.839844-1.191406 9.546875-3.417969 33.238281-19.691406 66.371093-23.277344 66.675781-23.308594 7.683594-.75 13.542969-7.210937 13.542969-14.929687 0-42.941406-5.492188-65.316406-8.300781-73.957031l32.867187-11.792969c11.949219-4.285156 19.375-13.851563 19.375-24.960937 0-11.109376-7.425781-20.675782-19.308594-24.9375l-87.542969-31.851563c-16.960937-6.082031-36.414062-6.082031-53.40625.011719l-88.082031 31.816406c-9.105469 3.265625-15.570312 9.597656-18.136719 17.34375-.792968 1.828125-1.234374 3.839844-1.234374 5.957031v62.667969c0 8.285156 6.714843 15 15 15zm178.589843 22.019531c-13.789062 2.847657-36.28125 9.03125-59.734375 21.910157-23.457031-12.878907-45.945312-19.0625-59.734375-21.910157.886719-30.230469 4.796875-45.9375 6.425781-51.277343l26.941407 9.597656c8.476562 3.039062 17.582031 4.5625 26.6875 4.5625 9.101562 0 18.203125-1.523438 26.683593-4.5625l26.367188-9.460938c1.597656 5.253906 5.480469 20.914063 6.363281 51.140625zm-75.976562-126.574219c10.367187-3.722656 22.746093-3.722656 33.054687-.023437l78.472656 28.546875-78.410156 28.132812c-10.367187 3.71875-22.746094 3.71875-33.144531-.011718l-41.4375-14.757813h58.988281c8.285156 0 15-6.714843 15-15 0-8.285156-6.714844-15-15-15h-50.4375zm0 0"/><path d="m435.714844 156.800781c-3.457032-7.527343-12.363282-10.828125-19.894532-7.371093-7.527343 3.453124-10.828124 12.359374-7.371093 19.890624 1.691406 3.6875 2.550781 7.640626 2.550781 11.746094v72.035156c0 8.285157 6.714844 15 15 15s15-6.714843 15-15v-72.035156c0-8.460937-1.777344-16.625-5.285156-24.265625zm0 0"/><path d="m426 310.136719c-8.285156 0-15 6.714843-15 15 0 15.558593-12.660156 28.21875-28.222656 28.21875h-253.554688c-15.5625 0-28.222656-12.660157-28.222656-28.21875v-144.070313c0-4.109375.859375-8.0625 2.550781-11.75 3.457031-7.527344.15625-16.433594-7.371093-19.890625-7.535157-3.453125-16.4375-.152343-19.894532 7.375-3.507812 7.640625-5.285156 15.804688-5.285156 24.265625v144.070313c0 32.101562 26.117188 58.21875 58.222656 58.21875h111.777344v27.539062h-49.828125c-8.285156 0-15 6.714844-15 15 0 8.285157 6.714844 15 15 15h129.65625c8.285156 0 15-6.714843 15-15 0-8.285156-6.714844-15-15-15h-49.828125v-27.539062h111.777344c32.105468 0 58.222656-26.117188 58.222656-58.21875 0-8.285157-6.714844-15-15-15zm0 0"/></g></svg>