<svg height="512pt" viewBox="0 0 512 512" width="512pt" xmlns="http://www.w3.org/2000/svg" xmlns:xlink="http://www.w3.org/1999/xlink"><linearGradient id="a" gradientUnits="userSpaceOnUse" x1="0" x2="512" y1="256" y2="256"><stop offset="0" stop-color="#00f1ff"/><stop offset=".231" stop-color="#00d8ff"/><stop offset=".5138" stop-color="#00c0ff"/><stop offset=".7773" stop-color="#00b2ff"/><stop offset="1" stop-color="#00adff"/></linearGradient><path d="m512 256c0 141.386719-114.613281 256-256 256s-256-114.613281-256-256 114.613281-256 256-256 256 114.613281 256 256zm0 0" fill="url(#a)"/><g fill="#fff"><path d="m386.925781 98.714844h-261.851562c-23.003907 0-41.71875 18.714844-41.71875 41.71875v221.773437c0 30.371094 24.707031 55.078125 55.078125 55.078125h235.132812c30.371094 0 55.078125-24.707031 55.078125-55.078125 0-8.285156-6.714843-15-15-15-8.28125 0-15 6.714844-15 15 0 13.828125-11.25 25.078125-25.078125 25.078125h-235.132812c-13.828125 0-25.078125-11.25-25.078125-25.078125v-179.386719h285.289062v112.585938c0 8.285156 6.71875 15 15 15 8.285157 0 15-6.714844 15-15v-154.972656c0-23.003906-18.714843-41.71875-41.71875-41.71875zm-54.105469 30c6.460938 0 11.71875 5.257812 11.71875 11.71875 0 6.460937-5.257812 11.71875-11.71875 11.71875-6.460937 0-11.71875-5.257813-11.71875-11.71875 0-6.460938 5.257813-11.71875 11.71875-11.71875zm65.15625 11.71875c0 6.460937-5.253906 11.71875-11.71875 11.71875-6.460937 0-11.71875-5.257813-11.71875-11.71875 0-6.460938 5.257813-11.71875 11.71875-11.71875 6.464844 0 11.71875 5.257812 11.71875 11.71875zm-284.621093 0c0-6.460938 5.257812-11.71875 11.71875-11.71875h167.714843c-1.09375 3.71875-1.6875 7.648437-1.6875 11.71875 0 4.308594.65625 8.472656 1.875 12.386718h-179.621093zm0 0"/><path d="m241 345.507812c0 8.28125 6.714844 15 15 15s15-6.71875 15-15v-72.144531c0-8.285156-6.714844-15-15-15s-15 6.714844-15 15zm0 0"/><path d="m269.359375 227.273438c0 7.378906-5.980469 13.359374-13.359375 13.359374s-13.359375-5.980468-13.359375-13.359374c0-7.378907 5.980469-13.363282 13.359375-13.363282s13.359375 5.984375 13.359375 13.363282zm0 0"/></g></svg>