<?xml version="1.0" encoding="iso-8859-1"?>
<!-- Generator: Adobe Illustrator 19.0.0, SVG Export Plug-In . SVG Version: 6.00 Build 0)  -->
<svg xmlns="http://www.w3.org/2000/svg" xmlns:xlink="http://www.w3.org/1999/xlink" version="1.1" id="Layer_1" x="0px" y="0px" viewBox="0 0 512 512" style="enable-background:new 0 0 512 512;" xml:space="preserve" width="512" height="512">
<linearGradient id="SVGID_1_" gradientUnits="userSpaceOnUse" x1="0" y1="256" x2="512" y2="256">
	<stop offset="0" style="stop-color:#00F2FE"/>
	<stop offset="0.0208" style="stop-color:#03EFFE"/>
	<stop offset="0.2931" style="stop-color:#24D2FE"/>
	<stop offset="0.5538" style="stop-color:#3CBDFE"/>
	<stop offset="0.7956" style="stop-color:#4AB0FE"/>
	<stop offset="1" style="stop-color:#4FACFE"/>
</linearGradient>
<path style="fill:url(#SVGID_1_);" d="M452,20H60C26.916,20,0,46.916,0,80v332c0,44.112,35.888,80,80,80h352  c44.112,0,80-35.888,80-80c0-11.046-8.954-20-20-20s-20,8.954-20,20c0,22.056-17.944,40-40,40H80c-22.056,0-40-17.944-40-40V141h432  v171c0,11.046,8.954,20,20,20s20-8.954,20-20V80C512,46.916,485.084,20,452,20z M371,60c11.028,0,20,8.972,20,20s-8.972,20-20,20  s-20-8.972-20-20S359.972,60,371,60z M471,80c0,11.028-8.972,20-20,20s-20-8.972-20-20s8.972-20,20-20S471,68.972,471,80z M40,80  c0-11.028,8.972-20,20-20h254.44c-2.22,6.26-3.44,12.989-3.44,20c0,7.386,1.349,14.46,3.801,21H40V80z M276,279v108  c0,11.046-8.954,20-20,20s-20-8.954-20-20V279c0-11.046,8.954-20,20-20S276,267.954,276,279z M276,210c0,11.046-8.954,20-20,20  s-20-8.954-20-20s8.954-20,20-20S276,198.954,276,210z"/>















</svg>
