<svg height="512pt" viewBox="0 0 512 511" width="512pt" xmlns="http://www.w3.org/2000/svg" xmlns:xlink="http://www.w3.org/1999/xlink"><linearGradient id="a" gradientUnits="userSpaceOnUse" x1="0" x2="512.000163" y1="256.0030525" y2="256.0030525"><stop offset="0" stop-color="#00f2fe"/><stop offset=".0208" stop-color="#03effe"/><stop offset=".2931" stop-color="#24d2fe"/><stop offset=".5538" stop-color="#3cbdfe"/><stop offset=".7956" stop-color="#4ab0fe"/><stop offset="1" stop-color="#4facfe"/></linearGradient><path d="m302.410156 275.960938c11.023438 0 19.960938-8.933594 19.960938-19.960938 0-11.023438-8.9375-19.960938-19.960938-19.960938h-26.949218v-79.125c22.375-.628906 44.234374-2.308593 65.027343-4.945312 5.199219 19.714844 9.007813 41.238281 11.042969 63.898438.984375 10.980468 10.695312 19.09375 21.664062 18.097656 10.980469-.988282 19.082032-10.6875 18.097657-21.667969-2.089844-23.253906-5.882813-45.738281-11.179688-66.792969 18.988281-3.839844 36.570313-8.570312 52.21875-14.105468 25.019531 35.207031 39.746094 78.21875 39.746094 124.601562 0 9.171875-.582031 18.398438-1.726563 27.429688-1.386718 10.9375 6.355469 20.929687 17.289063 22.3125.855469.109374 1.699219.164062 2.539063.164062 9.902343 0 18.496093-7.371094 19.777343-17.453125 1.355469-10.691406 2.042969-21.609375 2.042969-32.453125 0-68.246094-26.574219-132.410156-74.832031-180.667969-48.261719-48.257812-112.421875-74.832031-180.667969-74.832031-.097656 0-.195312.011719-.289062.015625-.238282-.003906-.472657-.015625-.710938-.015625-68.246094 0-132.40625 26.578125-180.667969 74.832031-48.253906 48.261719-74.832031 112.421875-74.832031 180.667969s26.578125 132.410156 74.832031 180.667969c48.257813 48.257812 112.421875 74.832031 180.667969 74.832031.242188 0 .476562-.011719.71875-.011719.09375 0 .183594.011719.28125.011719 14.890625 0 29.816406-1.289062 44.363281-3.839844 10.859375-1.902344 18.121094-12.246094 16.21875-23.105468-.136719-.78125-.328125-1.535157-.550781-2.277344 1.78125-5.988282.75-12.71875-3.394531-18.011719-6.796875-8.679687-19.34375-10.210937-28.023438-3.410156-3.226562 2.527343-6.414062 4.566406-9.652343 6.167969v-73.003907c6.332031.179688 12.625.445313 18.835937.796875 10.996094.636719 20.433594-7.796875 21.054687-18.800781.625-11.007813-7.792968-20.4375-18.800781-21.058594-6.953125-.390625-14-.679687-21.085937-.871093v-78.121094h26.945312zm-112.332031 137.664062c-2.546875-5.097656-4.957031-10.410156-7.222656-15.914062 16.898437-1.910157 34.566406-3.15625 52.683593-3.683594v72.453125c-16.4375-8.324219-32.328124-26.59375-45.460937-52.855469zm-35.707031 17.855469c3.679687 7.355469 7.570312 14.226562 11.644531 20.628906-21.796875-9.984375-41.648437-23.492187-58.824219-39.800781 10.933594-3.210938 22.726563-6.042969 35.203125-8.464844 3.621094 9.675781 7.617188 18.917969 11.976563 27.636719zm-75.453125-51.964844c-20.957031-29.871094-34.53125-65.277344-38.0625-103.554687h77.320312c1.261719 31.410156 5.496094 61.699218 12.425781 89.585937-18.773437 3.8125-36.167968 8.492187-51.683593 13.96875zm.550781-247.824219c15.417969 5.402344 32.71875 10.027344 51.371094 13.796875-7.074219 28.152344-11.386719 58.78125-12.664063 90.550781h-77.320312c3.5625-38.613281 17.339843-74.3125 38.613281-104.347656zm156.070312-14.71875c-17.9375-.527344-35.476562-1.761718-52.273437-3.652344 2.148437-5.15625 4.414063-10.148437 6.8125-14.945312 13.132813-26.261719 29.023437-44.53125 45.460937-52.855469zm-81.167968-36.449218c-4.214844 8.425781-8.082032 17.34375-11.609375 26.671874-12.296875-2.375-23.933594-5.144531-34.738281-8.28125 16.988281-15.957031 36.546874-29.195312 57.992187-39.023437-4.074219 6.402344-7.964844 13.273437-11.644531 20.632813zm15.996094 71.410156c20.851562 2.65625 42.761718 4.347656 65.171874 4.980468v79.125h-77.410156c1.292969-29.773437 5.460938-58.25 12.238282-84.105468zm105.09375-34.957032v-71.527343c19.910156 10.011719 38.265624 34.421875 52.136718 67.894531-16.742187 1.882812-34.230468 3.105469-52.136718 3.632812zm73.171874-51.152343c-1.332031-2.253907-2.691406-4.4375-4.070312-6.578125 21.90625 9.839844 41.871094 23.242187 59.179688 39.453125-11.03125 3.234375-22.9375 6.085937-35.539063 8.519531-5.679687-15.085938-12.230469-29-19.570313-41.394531zm-113.09375 288.265625c-22.542968.628906-44.53125 2.320312-65.429687 4.984375-6.625-25.589844-10.707031-53.71875-11.980469-83.113281h77.410156zm266.3125 15.140625-107.414062-85.984375c-5.417969-4.335938-11.621094-6.285156-17.679688-6.285156-14.628906 0-28.4375 11.375-28.4375 28.011718v142.53125c0 16.214844 13.4375 27.070313 27.519532 27.070313 6.429687 0 12.992187-2.261719 18.476562-7.3125l25.304688-23.3125 27.535156 56.355469c3.460938 7.085937 10.5625 11.203124 17.949219 11.203124 2.941406 0 5.925781-.652343 8.746093-2.03125 9.90625-4.839843 14.011719-16.792968 9.171876-26.699218l-27.449219-56.179688 7.03125-3.316406 28.460937-6.800781c22.011719-5.261719 28.382813-33.164063 10.785156-47.25zm-48.523437 15.222656c-2.667969.636719-5.265625 1.546875-7.746094 2.71875l-42.105469 19.855469c-3.664062 1.726562-7.042968 4-10.019531 6.746094l-5.214843 4.804687v-89.152344l67.902343 54.355469zm0 0" fill="url(#a)"/></svg>