<svg height="512pt" viewBox="0 0 512 512" width="512pt" xmlns="http://www.w3.org/2000/svg" xmlns:xlink="http://www.w3.org/1999/xlink"><linearGradient id="a" gradientUnits="userSpaceOnUse" x1="0" x2="512" y1="256" y2="256"><stop offset="0" stop-color="#00f1ff"/><stop offset=".231" stop-color="#00d8ff"/><stop offset=".5138" stop-color="#00c0ff"/><stop offset=".7773" stop-color="#00b2ff"/><stop offset="1" stop-color="#00adff"/></linearGradient><path d="m512 256c0 141.386719-114.613281 256-256 256s-256-114.613281-256-256 114.613281-256 256-256 256 114.613281 256 256zm0 0" fill="url(#a)"/><g fill="#fff"><path d="m288.542969 270c7.734375 0 14-6.269531 14-14 0-7.734375-6.265625-14-14-14h-18.894531v-55.480469c15.691406-.441406 31.015624-1.617187 45.59375-3.46875 3.648437 13.824219 6.316406 28.917969 7.746093 44.804688.691407 7.703125 7.503907 13.398437 15.195313 12.691406 7.699218-.691406 13.382812-7.492187 12.691406-15.195313-1.464844-16.304687-4.125-32.070312-7.839844-46.832031 13.3125-2.695312 25.640625-6.007812 36.613282-9.890625 17.542968 24.6875 27.871093 54.847656 27.871093 87.371094 0 6.433594-.40625 12.902344-1.210937 19.234375-.972656 7.671875 4.457031 14.675781 12.128906 15.648437.597656.078126 1.191406.113282 1.777344.113282 6.945312 0 12.976562-5.167969 13.871094-12.238282.949218-7.496093 1.433593-15.152343 1.433593-22.757812 0-98.796875-80.375-179.171875-179.167969-179.171875-.070312 0-.136718.011719-.203124.011719-.167969 0-.332032-.011719-.5-.011719-98.792969 0-179.167969 80.375-179.167969 179.171875 0 98.792969 80.375 179.167969 179.167969 179.167969.171874 0 .335937-.007813.503906-.011719.066406.003906.132812.011719.199218.011719 10.441407 0 20.90625-.90625 31.109376-2.691407 7.613281-1.335937 12.707031-8.589843 11.375-16.207031-.097657-.546875-.230469-1.078125-.386719-1.597656 1.25-4.199219.527343-8.917969-2.382813-12.632813-4.765625-6.089843-13.5625-7.160156-19.652344-2.390624-2.261718 1.769531-4.496093 3.199218-6.765624 4.324218v-51.1875c4.441406.125 8.855468.3125 13.203124.558594 7.730469.433594 14.332032-5.464844 14.769532-13.1875.441406-7.71875-5.464844-14.332031-13.183594-14.769531-4.871094-.277344-9.816406-.480469-14.789062-.613281v-54.777344h18.894531zm-78.765625 96.53125c-1.789063-3.574219-3.476563-7.300781-5.0625-11.160156 11.84375-1.335938 24.230468-2.210938 36.933594-2.582032v50.800782c-11.523438-5.835938-22.664063-18.644532-31.871094-37.058594zm-25.046875 12.519531c2.582031 5.160157 5.308593 9.972657 8.160156 14.460938-15.277344-7-29.195313-16.472657-41.234375-27.902344 7.664062-2.253906 15.929688-4.238281 24.679688-5.933594 2.539062 6.785157 5.339843 13.261719 8.394531 19.375zm-52.90625-36.441406c-14.695313-20.949219-24.210938-45.773437-26.6875-72.613281h54.214843c.886719 22.027344 3.851563 43.265625 8.714844 62.820312-13.164062 2.671875-25.363281 5.953125-36.242187 9.792969zm.386719-173.78125c10.8125 3.789063 22.941406 7.035156 36.019531 9.679687-4.960938 19.738282-7.984375 41.214844-8.878907 63.492188h-54.214843c2.496093-27.078125 12.15625-52.109375 27.074219-73.171875zm109.4375-10.324219c-12.578126-.371094-24.871094-1.234375-36.648438-2.5625 1.507812-3.613281 3.097656-7.113281 4.777344-10.472656 9.207031-18.414062 20.347656-31.222656 31.871094-37.0625zm-56.917969-25.558594c-2.953125 5.910157-5.667969 12.164063-8.136719 18.703126-8.621094-1.664063-16.78125-3.605469-24.355469-5.804688 11.910157-11.1875 25.621094-20.46875 40.652344-27.355469-2.851563 4.484375-5.578125 9.300781-8.160156 14.457031zm11.222656 50.082032c14.621094 1.859375 29.984375 3.046875 45.695313 3.488281v55.484375h-54.277344c.90625-20.878906 3.828125-40.84375 8.582031-58.972656zm73.695313-24.519532v-50.152343c13.960937 7.023437 26.828124 24.136719 36.554687 47.605469-11.738281 1.316406-24 2.175781-36.554687 2.546874zm51.3125-35.871093c-.933594-1.574219-1.886719-3.105469-2.847657-4.605469 15.351563 6.902344 29.351563 16.296875 41.484375 27.660156-7.734375 2.269532-16.082031 4.265625-24.914062 5.972656-3.984375-10.578124-8.578125-20.335937-13.722656-29.027343zm-79.3125 202.144531c-15.804688.441406-31.222657 1.625-45.875 3.496094-4.644532-17.945313-7.507813-37.667969-8.402344-58.28125h54.277344zm0 0"/><path d="m428.402344 335.402344-75.324219-60.296875c-3.800781-3.039063-8.148437-4.410157-12.398437-4.410157-10.257813 0-19.941407 7.976563-19.941407 19.644532v99.949218c0 11.367188 9.425781 18.980469 19.300781 18.980469 4.507813 0 9.109376-1.585937 12.953126-5.125l17.742187-16.347656 19.308594 39.515625c2.429687 4.96875 7.40625 7.859375 12.589843 7.859375 2.0625 0 4.15625-.460937 6.136719-1.425781 6.945313-3.394532 9.828125-11.777344 6.433594-18.726563l-19.25-39.394531 4.929687-2.324219 19.957032-4.769531c15.433594-3.6875 19.902344-23.253906 7.5625-33.128906zm-34.03125 10.667968c-1.871094.445313-3.691406 1.085938-5.433594 1.90625l-29.523438 13.921876c-2.570312 1.210937-4.941406 2.808593-7.027343 4.734374l-3.648438 3.359376v-62.496094l47.597657 38.101562zm0 0"/></g></svg>