<svg height="512pt" viewBox="0 0 512 512" width="512pt" xmlns="http://www.w3.org/2000/svg" xmlns:xlink="http://www.w3.org/1999/xlink"><linearGradient id="a" gradientUnits="userSpaceOnUse" x1="0" x2="512" y1="256" y2="256"><stop offset="0" stop-color="#00f1ff"/><stop offset=".231" stop-color="#00d8ff"/><stop offset=".5138" stop-color="#00c0ff"/><stop offset=".7773" stop-color="#00b2ff"/><stop offset="1" stop-color="#00adff"/></linearGradient><path d="m512 256c0 141.386719-114.613281 256-256 256s-256-114.613281-256-256 114.613281-256 256-256 256 114.613281 256 256zm0 0" fill="url(#a)"/><g fill="#fff"><path d="m256 77.085938c-79.027344 0-143.398438 64.292968-143.488281 143.355468.058593 61.472656 37.664062 102.65625 74.03125 142.480469 18.40625 20.15625 37.4375 41 52.609375 65.007813 2.75 4.347656 7.535156 6.984374 12.679687 6.984374h8.335938c5.144531 0 9.929687-2.636718 12.679687-6.984374 15.175782-24.011719 34.207032-44.855469 52.617188-65.011719l2.140625-2.347657c5.585937-6.121093 5.152343-15.605468-.964844-21.191406-6.117187-5.585937-15.605469-5.148437-21.191406.96875l-2.140625 2.339844c-16.085938 17.621094-32.632813 35.738281-47.308594 56.5-14.675781-20.761719-31.21875-38.875-47.304688-56.492188-35.488281-38.867187-66.136718-72.429687-66.1875-122.25.074219-62.507812 50.984376-113.359374 113.492188-113.359374s113.417969 50.851562 113.488281 113.324218c-.023437 25.355469-7.546875 47.644532-24.394531 72.265625-4.679688 6.835938-2.929688 16.171875 3.90625 20.847657 6.839844 4.683593 16.171875 2.929687 20.851562-3.90625 20.1875-29.507813 29.605469-57.84375 29.636719-89.207032-.089843-79.03125-64.457031-143.324218-143.488281-143.324218zm0 0"/><path d="m255.304688 138.621094c-45.1875 0-81.953126 36.765625-81.953126 81.957031s36.765626 81.953125 81.953126 81.953125c45.191406 0 81.957031-36.761719 81.957031-81.953125s-36.765625-81.957031-81.957031-81.957031zm55.558593 69.457031h-18.261719c-.777343-12.28125-2.714843-24.390625-5.875-34.972656 12.039063 7.996093 20.867188 20.441406 24.136719 34.972656zm-67.820312 25h24.527343c-1.734374 25.066406-8.402343 39.902344-12.265624 43.8125-3.863282-3.910156-10.53125-18.746094-12.261719-43.8125zm0-25c1.730469-25.066406 8.398437-39.902344 12.261719-43.8125 3.863281 3.910156 10.53125 18.746094 12.265624 43.8125zm-19.15625-34.972656c-3.160157 10.582031-5.097657 22.691406-5.875 34.972656h-18.261719c3.269531-14.53125 12.097656-26.976563 24.136719-34.972656zm-24.136719 59.972656h18.261719c.777343 12.28125 2.710937 24.390625 5.875 34.972656-12.039063-7.996093-20.867188-20.441406-24.136719-34.972656zm86.976562 34.972656c3.160157-10.582031 5.097657-22.691406 5.875-34.972656h18.261719c-3.269531 14.53125-12.097656 26.976563-24.136719 34.972656zm0 0"/></g></svg>