<svg height="512pt" viewBox="0 0 512 512" width="512pt" xmlns="http://www.w3.org/2000/svg" xmlns:xlink="http://www.w3.org/1999/xlink"><linearGradient id="a" gradientUnits="userSpaceOnUse" x1="0" x2="512" y1="256" y2="256"><stop offset="0" stop-color="#00f1ff"/><stop offset=".231" stop-color="#00d8ff"/><stop offset=".5138" stop-color="#00c0ff"/><stop offset=".7773" stop-color="#00b2ff"/><stop offset="1" stop-color="#00adff"/></linearGradient><path d="m512 256c0 141.386719-114.613281 256-256 256s-256-114.613281-256-256 114.613281-256 256-256 256 114.613281 256 256zm0 0" fill="url(#a)"/><g fill="#fff"><path d="m344.484375 80.464844h-134.171875c-30.355469 0-55.050781 24.695312-55.050781 55.050781v26.703125c0 8.28125 6.714843 15 15 15 8.28125 0 15-6.71875 15-15v-26.703125c0-13.8125 11.234375-25.050781 25.050781-25.050781h134.171875c13.8125 0 25.050781 11.238281 25.050781 25.050781v234.96875c0 13.8125-11.238281 25.050781-25.050781 25.050781h-134.171875c-13.816406 0-25.050781-11.238281-25.050781-25.050781v-26.703125c0-8.28125-6.71875-15-15-15-8.285157 0-15 6.71875-15 15v26.703125c0 30.355469 24.695312 55.050781 55.050781 55.050781h134.171875c30.355469 0 55.050781-24.695312 55.050781-55.050781v-234.96875c0-30.355469-24.695312-55.050781-55.050781-55.050781zm0 0"/><path d="m205.753906 286.40625c-5.878906 5.835938-5.917968 15.332031-.082031 21.214844 2.933594 2.957031 6.789063 4.4375 10.648437 4.4375 3.816407 0 7.640626-1.453125 10.5625-4.355469l30.132813-29.894531c6.675781-6.621094 10.347656-15.429688 10.347656-24.808594s-3.671875-18.1875-10.347656-24.808594l-30.132813-29.898437c-5.878906-5.832031-15.375-5.796875-21.210937.085937-5.835937 5.878906-5.800781 15.378906.082031 21.210938l18.554688 18.410156h-154.84375c-8.285156 0-15 6.714844-15 15s6.714844 15 15 15h154.84375zm0 0"/></g></svg>