<svg height="512pt" viewBox="0 0 512 512" width="512pt" xmlns="http://www.w3.org/2000/svg" xmlns:xlink="http://www.w3.org/1999/xlink"><linearGradient id="a" gradientUnits="userSpaceOnUse" x1="0" x2="512" y1="256" y2="256"><stop offset="0" stop-color="#00f1ff"/><stop offset=".231" stop-color="#00d8ff"/><stop offset=".5138" stop-color="#00c0ff"/><stop offset=".7773" stop-color="#00b2ff"/><stop offset="1" stop-color="#00adff"/></linearGradient><path d="m512 256c0 141.386719-114.613281 256-256 256s-256-114.613281-256-256 114.613281-256 256-256 256 114.613281 256 256zm0 0" fill="url(#a)"/><g fill="#fff"><path d="m365.652344 85.289062c-.019532 0-.042969-.003906-.0625-.003906-.011719 0-.019532.003906-.03125.003906-.011719 0-.023438-.003906-.03125-.003906-.023438 0-.042969.003906-.066406.003906-.558594 0-1.113282.023438-1.671876.042969-.300781-.019531-.597656-.046875-.902343-.046875h-173.527344c-30.097656 0-54.585937 24.488282-54.585937 54.589844 0 .539062.03125 1.070312.085937 1.59375.246094 31.035156 7.644531 67.542969 15.484375 106.175781 4.679688 23.0625 9.488281 46.765625 12.859375 69.890625h-35.863281c-2.773438 0-5.484375.769532-7.847656 2.21875-1.113282.683594-27.101563 17.023438-27.578126 51.414063-.019531.316406-.027343.636719-.027343.957031 0 30.101562 24.484375 54.589844 54.585937 54.589844h172.828125.0625.070313c30.03125-.074219 54.449218-24.527344 54.457031-54.574219 0-8.285156-6.714844-15.003906-14.996094-15.003906-.003906 0-.003906 0-.003906 0-8.285156 0-15 6.710937-15 14.996093-.003906 13.542969-11.019531 24.5625-24.558594 24.582032-13.542969-.019532-24.558593-11.042969-24.558593-24.589844 0-17.34375 12.085937-25.988281 13.355468-26.851562 5.828125-3.40625 8.488282-10.1875 6.742188-16.71875-1.753906-6.5625-7.875-11.019532-14.667969-11.019532h-106.703125c-3.503906-25.320312-8.703125-50.953125-13.757812-75.859375-7.664063-37.773437-14.90625-73.453125-14.90625-101.8125 0-.28125-.027344-.554687-.042969-.832031.449219-13.167969 11.292969-23.746094 24.566406-23.746094h127.519531c-3.746094 7.394532-5.875 15.738282-5.875 24.578125 0 31.371094 7.53125 68.484375 15.503906 107.777344 4.363282 21.496094 8.875 43.726563 12.191407 65.40625 1.136719 7.421875 7.527343 12.734375 14.808593 12.734375.753907 0 1.519532-.054688 2.289063-.175781 8.1875-1.25 13.8125-8.902344 12.558594-17.09375-3.425781-22.402344-8.011719-44.992188-12.445313-66.839844-7.667968-37.773437-14.90625-73.453125-14.90625-101.804687.003906-13.546876 11.015625-24.566407 24.554688-24.582032 13.542968.015625 24.558594 11.039063 24.558594 24.585938 0 12.839844-6.625 20.914062-10.578126 24.589844h-1.476562c-8.28125 0-15 6.714843-15 15 0 8.28125 6.71875 15 15 15h6.625c2.769531 0 5.484375-.769532 7.84375-2.214844 1.125-.691406 27.585938-17.332032 27.585938-52.375-.003907-30.054688-24.421876-54.511719-54.464844-54.582032zm-95.019532 311.421876h-124.160156c-13.335937 0-24.226562-10.667969-24.578125-23.921876.007813-.21875.015625-.441406.015625-.664062 0-12.839844 6.621094-20.914062 10.574219-24.589844h137.132813c-2.878907 6.863282-4.839844 15.042969-4.839844 24.589844 0 8.839844 2.113281 17.195312 5.855468 24.585938zm0 0"/><path d="m277.773438 194.460938c8.285156 0 15-6.714844 15-15 0-8.28125-6.714844-15-15-15h-74.558594c-8.285156 0-15 6.71875-15 15 0 8.285156 6.714844 15 15 15zm0 0"/><path d="m300.691406 225.648438c0-8.285157-6.714844-15-15-15h-73.898437c-8.28125 0-15 6.714843-15 15 0 8.285156 6.71875 15 15 15h73.898437c8.285156 0 15-6.714844 15-15zm0 0"/><path d="m222.351562 256.835938c-8.285156 0-15 6.714843-15 15 0 8.28125 6.714844 15 15 15h46.84375c8.285157 0 15-6.71875 15-15 0-8.285157-6.714843-15-15-15zm0 0"/></g></svg>