<svg height="512pt" viewBox="0 0 512 512" width="512pt" xmlns="http://www.w3.org/2000/svg" xmlns:xlink="http://www.w3.org/1999/xlink"><linearGradient id="a" gradientUnits="userSpaceOnUse" x1=".000363" x2="511.996963" y1="256" y2="256"><stop offset="0" stop-color="#00f2fe"/><stop offset=".0208" stop-color="#03effe"/><stop offset=".2931" stop-color="#24d2fe"/><stop offset=".5538" stop-color="#3cbdfe"/><stop offset=".7956" stop-color="#4ab0fe"/><stop offset="1" stop-color="#4facfe"/></linearGradient><path d="m68.59375 318.835938c13.472656-23.378907 27.402344-47.554688 27.402344-84.835938v-30c0-63.070312 51.089844-115.074219 113.917968-115.988281h3.78125c63.039063.917969 114.300782 52.921875 114.300782 115.988281v30c0 21.78125 4.363281 40.507812 14.148437 60.714844 3.453125 7.136718 10.585938 11.292968 18.015625 11.289062 2.921875 0 5.890625-.644531 8.699219-2 9.941406-4.816406 14.097656-16.777344 9.285156-26.71875-7.113281-14.691406-10.148437-27.636718-10.148437-43.285156v-30c0-79.160156-60.0625-145.351562-137-154.824219v-29.175781c0-11.046875-8.953125-20-20-20s-20 8.953125-20 20v29.363281c-34.054688 4.523438-65.539063 20.195313-90.105469 45.171875-28.949219 29.429688-44.894531 68.304688-44.894531 109.464844v30c0 26.582031-9.734375 43.476562-22.058594 64.867188-12.175781 21.125-25.972656 45.074218-32.902344 82.042968-3.300781 17.613282 1.371094 35.625 12.8125 49.414063 11.433594 13.777343 28.257813 21.675781 46.160156 21.675781h91.988282c0 33.085938 26.917968 60 60 60 33.085937 0 60-26.914062 60-60 0-.425781-.035156-.84375-.0625-1.261719 7.621094-2.824219 13.0625-10.136719 13.0625-18.738281 0-11.046875-8.953125-20-20-20h-204.988282c-8.164062 0-13.140624-4.523438-15.378906-7.222656-2.246094-2.707032-5.785156-8.445313-4.277344-16.5 5.675782-30.269532 17.148438-50.183594 28.242188-69.441406zm163.402344 133.164062c0 11.027344-8.972656 20-20 20s-20-8.972656-20-20zm280-35c0 11.046875-8.953125 20-20 20h-55v55c0 11.046875-8.953125 20-20 20s-20-8.953125-20-20v-55h-55c-11.046875 0-20-8.953125-20-20s8.953125-20 20-20h55v-55c0-11.046875 8.953125-20 20-20s20 8.953125 20 20v55h55c11.046875 0 20 8.953125 20 20zm0 0" fill="url(#a)"/></svg>