<svg height="512pt" viewBox="0 0 512 512" width="512pt" xmlns="http://www.w3.org/2000/svg" xmlns:xlink="http://www.w3.org/1999/xlink"><linearGradient id="a" gradientUnits="userSpaceOnUse" x1="0" x2="512" y1="256" y2="256"><stop offset="0" stop-color="#00f1ff"/><stop offset=".231" stop-color="#00d8ff"/><stop offset=".5138" stop-color="#00c0ff"/><stop offset=".7773" stop-color="#00b2ff"/><stop offset="1" stop-color="#00adff"/></linearGradient><path d="m512 256c0 141.386719-114.613281 256-256 256s-256-114.613281-256-256 114.613281-256 256-256 256 114.613281 256 256zm0 0" fill="url(#a)"/><g fill="#fff"><path d="m364.351562 213.914062h-80.570312c-8.28125 0-15 6.714844-15 15 0 8.28125 6.71875 15 15 15h80.570312c8.28125 0 15-6.71875 15-15 0-8.285156-6.71875-15-15-15zm0 0"/><path d="m228.21875 213.914062h-80.570312c-8.28125 0-15 6.714844-15 15 0 8.28125 6.71875 15 15 15h80.570312c8.285156 0 15-6.71875 15-15 0-8.285156-6.714844-15-15-15zm0 0"/><path d="m379.351562 284.476562c0-8.285156-6.71875-15-15-15h-80.570312c-8.28125 0-15 6.714844-15 15 0 8.285157 6.71875 15 15 15h80.570312c8.28125 0 15-6.714843 15-15zm0 0"/><path d="m228.21875 269.476562h-80.570312c-8.28125 0-15 6.714844-15 15 0 8.285157 6.71875 15 15 15h80.570312c8.285156 0 15-6.714843 15-15 0-8.285156-6.714844-15-15-15zm0 0"/><path d="m283.78125 325.039062c-8.285156 0-15 6.71875-15 15 0 8.285157 6.714844 15 15 15h52.785156c8.285156 0 15-6.714843 15-15 0-8.28125-6.714844-15-15-15zm0 0"/><path d="m228.21875 325.039062h-80.570312c-8.28125 0-15 6.71875-15 15 0 8.285157 6.71875 15 15 15h80.570312c8.285156 0 15-6.714843 15-15 0-8.28125-6.714844-15-15-15zm0 0"/><path d="m392.132812 90.976562h-272.265624c-23.589844 0-42.78125 19.191407-42.78125 42.78125v230.59375c0 31.246094 25.425781 56.671876 56.671874 56.671876h244.484376c31.246093 0 56.671874-25.425782 56.671874-56.671876 0-8.285156-6.714843-15-15-15-8.285156 0-15 6.714844-15 15 0 14.707032-11.964843 26.671876-26.671874 26.671876h-244.484376c-14.707031 0-26.671874-11.964844-26.671874-26.671876v-187.117187h297.828124v117.660156c0 8.285157 6.714844 15 15 15 8.285157 0 15-6.714843 15-15v-161.136719c0-23.589843-19.191406-42.78125-42.78125-42.78125zm-56.261718 30c7.050781 0 12.785156 5.734376 12.785156 12.78125 0 7.050782-5.734375 12.78125-12.785156 12.78125-7.046875 0-12.777344-5.730468-12.777344-12.78125 0-7.046874 5.730469-12.78125 12.777344-12.78125zm68.347656 12.78125c0 7.050782-5.734375 12.78125-12.78125 12.78125s-12.78125-5.730468-12.78125-12.78125c0-7.046874 5.734375-12.78125 12.78125-12.78125s12.78125 5.734376 12.78125 12.78125zm-297.132812 0c0-7.046874 5.734374-12.78125 12.78125-12.78125h175.175781c-1.265625 4.039063-1.953125 8.332032-1.953125 12.78125 0 4.710938.777344 9.238282 2.1875 13.476563h-188.191406zm0 0"/></g></svg>