<svg height="512pt" viewBox="0 0 512 512" width="512pt" xmlns="http://www.w3.org/2000/svg" xmlns:xlink="http://www.w3.org/1999/xlink"><linearGradient id="a" gradientUnits="userSpaceOnUse" x1="0" x2="512" y1="256" y2="256"><stop offset="0" stop-color="#00f1ff"/><stop offset=".231" stop-color="#00d8ff"/><stop offset=".5138" stop-color="#00c0ff"/><stop offset=".7773" stop-color="#00b2ff"/><stop offset="1" stop-color="#00adff"/></linearGradient><path d="m512 256c0 141.386719-114.613281 256-256 256s-256-114.613281-256-256 114.613281-256 256-256 256 114.613281 256 256zm0 0" fill="url(#a)"/><g fill="#fff"><path d="m368.75 168.359375c22.78125 0 41.316406-18.535156 41.316406-41.320313 0-22.78125-18.535156-41.316406-41.316406-41.316406-22.785156 0-41.320312 18.535156-41.320312 41.316406 0 22.785157 18.535156 41.320313 41.320312 41.320313zm0-52.636719c6.238281 0 11.316406 5.078125 11.316406 11.316406 0 6.242188-5.078125 11.320313-11.316406 11.320313-6.242188 0-11.320312-5.078125-11.320312-11.320313 0-6.238281 5.078124-11.316406 11.320312-11.316406zm0 0"/><path d="m404.277344 259.421875h-44.742188c-2.609375 0-4.734375-2.125-4.734375-4.738281v-42.074219c0-11.882813-5.121093-23.195313-14.046875-31.039063l-64.875-57c-14.113281-12.398437-35.90625-11.203124-48.53125 2.617188l-34.773437 37.714844c-5.613281 6.089844-5.230469 15.582031.859375 21.195312 6.089844 5.617188 15.582031 5.230469 21.195312-.859375l34.820313-37.765625c1.730469-1.894531 4.703125-2.058594 6.625-.367187l22.652343 19.902343-60.898437 68.03125c-15.136719 16.839844-13.828125 42.9375 2.914063 58.179688l18.402343 16.75c.382813.429688.785157.847656 1.226563 1.238281.378906.339844.769531.652344 1.175781.945313l33.019531 30.050781c1.898438 1.730469 2.0625 4.703125.328125 6.679687l-45.757812 52.542969c-5.441407 6.246094-4.789063 15.722657 1.457031 21.164063 2.84375 2.472656 6.351562 3.6875 9.847656 3.6875 4.1875 0 8.351563-1.742188 11.316406-5.148438l45.714844-52.492187c12.421875-14.140625 11.203125-35.949219-2.714844-48.617188l-23.25-21.160156 53.289063-59.679687v15.503906c0 19.15625 15.585937 34.738281 34.738281 34.738281h44.742188c8.28125 0 15-6.714844 15-15s-6.714844-15-15-15zm-163.339844 11.613281c-4.585938-4.175781-4.945312-11.324218-.777344-15.960937l61.105469-68.261719 16.851563 14.808594-68.796876 77.042968zm0 0"/><path d="m188.800781 308.152344-27.738281 29.078125c-.082031.082031-.164062.167969-.242188.253906-1.726562 1.902344-4.703124 2.066406-6.632812.371094-.039062-.03125-.074219-.066407-.113281-.097657l-50.566407-43.523437c-6.277343-5.402344-15.75-4.695313-21.152343 1.585937-5.40625 6.277344-4.695313 15.75 1.582031 21.152344l50.515625 43.480469c6.535156 5.707031 14.691406 8.515625 22.824219 8.515625 9.414062 0 18.796875-3.761719 25.59375-11.140625l27.636718-28.96875c5.71875-5.996094 5.492188-15.488281-.5-21.207031-5.992187-5.71875-15.488281-5.496094-21.207031.5zm0 0"/></g></svg>