<svg viewBox="0 0 512 512" xmlns="http://www.w3.org/2000/svg" xmlns:xlink="http://www.w3.org/1999/xlink"><linearGradient id="a" gradientTransform="matrix(1 0 0 -1 0 -9462)" gradientUnits="userSpaceOnUse" x1="0" x2="512" y1="-9718" y2="-9718"><stop offset="0" stop-color="#00f1ff"/><stop offset=".231" stop-color="#00d8ff"/><stop offset=".5138" stop-color="#00c0ff"/><stop offset=".7773" stop-color="#00b2ff"/><stop offset="1" stop-color="#00adff"/></linearGradient><path d="m512 256c0 141.386719-114.613281 256-256 256s-256-114.613281-256-256 114.613281-256 256-256 256 114.613281 256 256zm0 0" fill="url(#a)"/><path d="m418 323.167969c8.285156 0 15-6.714844 15-15v-123.558594c0-8.285156-6.714844-15-15-15h-85.222656v-13.828125c0-42.339844-34.441406-76.78125-76.777344-76.78125s-76.777344 34.441406-76.777344 76.78125v13.828125h-85.222656c-8.285156 0-15 6.71875-15 15v192.203125c0 30.984375 25.203125 56.1875 56.1875 56.1875h241.625c30.984375 0 56.1875-25.203125 56.1875-56.1875 0-8.285156-6.714844-15-15-15s-15 6.714844-15 15c0 14.441406-11.746094 26.1875-26.1875 26.1875h-241.625c-14.441406 0-26.1875-11.746094-26.1875-26.1875v-177.203125h70.222656v50.210937c0 8.285157 6.714844 15 15 15 8.28125 0 15-6.714843 15-15v-94.039062c0-25.796875 20.984375-46.78125 46.777344-46.78125s46.777344 20.984375 46.777344 46.78125v13.828125h-53.640625c-8.285157 0-15 6.71875-15 15 0 8.285156 6.714843 15 15 15h53.640625v50.214844c0 8.28125 6.71875 15 15 15 8.285156 0 15-6.71875 15-15v-50.214844h70.222656v108.558594c0 8.285156 6.714844 15 15 15zm0 0" fill="#fff"/></svg>