<svg viewBox="0 0 512 512" xmlns="http://www.w3.org/2000/svg" xmlns:xlink="http://www.w3.org/1999/xlink"><linearGradient id="a" gradientTransform="matrix(1 0 0 -1 0 -12310)" gradientUnits="userSpaceOnUse" x1="0" x2="512" y1="-12566" y2="-12566"><stop offset="0" stop-color="#00f1ff"/><stop offset=".231" stop-color="#00d8ff"/><stop offset=".5138" stop-color="#00c0ff"/><stop offset=".7773" stop-color="#00b2ff"/><stop offset="1" stop-color="#00adff"/></linearGradient><path d="m512 256c0 141.386719-114.613281 256-256 256s-256-114.613281-256-256 114.613281-256 256-256 256 114.613281 256 256zm0 0" fill="url(#a)"/><path d="m409.914062 383.417969c-1.6875-8.113281-9.628906-13.320313-17.738281-11.640625-8.109375 1.6875-13.320312 9.625-11.636719 17.738281.597657 2.871094-.132812 5.835937-2 8.128906-1.019531 1.253907-3.269531 3.355469-6.890624 3.355469h-94.804688l38.347656-98.058594c13.867188 7.28125 26.414063 17.136719 36.902344 29.238282 5.421875 6.261718 14.894531 6.9375 21.15625 1.515624 6.261719-5.425781 6.941406-14.898437 1.515625-21.160156-17.535156-20.238281-39.730469-35.394531-64.320313-44.457031 17.730469-15.308594 28.984376-37.925781 28.984376-63.136719 0-14.777344-3.832032-28.953125-10.996094-41.425781l42.945312-15.824219v70.21875c0 8.28125 6.71875 15 15 15 8.285156 0 15-6.71875 15-15v-90.765625c0-.140625-.015625-.277343-.019531-.417969.007813-.183593.019531-.367187.019531-.546874v-.8125c0-6.226563-3.851562-11.808594-9.671875-14.019532l-129.972656-49.371094c-3.417969-1.296874-7.191406-1.304687-10.609375-.015624l-130.789062 49.230468c-5.847657 2.203125-9.71875 7.792969-9.71875 14.039063v.808593c0 6.300782 3.9375 11.925782 9.851562 14.089844l63.246094 23.128906c-7.261719 12.53125-11.148438 26.792969-11.148438 41.683594 0 25.238282 11.28125 47.878906 29.046875 63.191406-16.402343 6.058594-31.800781 14.839844-45.4375 26.089844-27.628906 22.792969-46.835937 54.578125-54.089843 89.511719-2.421876 11.667969.492187 23.648437 7.996093 32.867187 7.445313 9.152344 18.480469 14.398438 30.269531 14.398438h231.296876c11.710937 0 22.703124-5.253906 30.160156-14.417969 7.589844-9.328125 10.542968-21.417969 8.105468-33.164062zm-153.914062-11.484375-31.144531-79.640625c10.019531-2.558594 20.460937-3.921875 31.144531-3.921875 10.617188 0 21.078125 1.328125 31.164062 3.867187zm.382812-279.898438 88.273438 33.527344-38.824219 14.304688c-14.292969-6.53125-36.199219-7.714844-49.671875-7.746094-13.445312-.03125-35.386718 1.050781-49.695312 7.511718l-38.816406-14.195312zm-53.816406 112.90625c0-14.292968 5.566406-27.691406 15.671875-37.785156 2.859375-1.675781 15.578125-5.035156 37.378907-5.035156h.503906c22.125.054687 34.988281 3.527344 37.839844 5.230468 9.976562 10.070313 15.46875 23.402344 15.46875 37.585938 0 29.464844-23.96875 53.433594-53.429688 53.433594-29.464844 0-53.433594-23.96875-53.433594-53.429688zm-69.214844 192.722656c-1.046874-1.285156-2.683593-4.011718-1.890624-7.835937 7.902343-38.070313 32.660156-69.378906 65.414062-86.71875l38.28125 97.890625h-94.804688c-3.730468 0-5.988281-2.089844-7-3.335938zm0 0" fill="#fff"/></svg>