<svg height="512pt" viewBox="0 0 512 512" width="512pt" xmlns="http://www.w3.org/2000/svg" xmlns:xlink="http://www.w3.org/1999/xlink"><linearGradient id="a" gradientUnits="userSpaceOnUse" x1="0" x2="512" y1="256" y2="256"><stop offset="0" stop-color="#00f1ff"/><stop offset=".231" stop-color="#00d8ff"/><stop offset=".5138" stop-color="#00c0ff"/><stop offset=".7773" stop-color="#00b2ff"/><stop offset="1" stop-color="#00adff"/></linearGradient><path d="m512 256c0 141.386719-114.613281 256-256 256s-256-114.613281-256-256 114.613281-256 256-256 256 114.613281 256 256zm0 0" fill="url(#a)"/><g fill="#fff"><path d="m139.441406 278.003906c2.566406 1.714844 5.460938 2.535156 8.328125 2.535156 4.839844 0 9.589844-2.335937 12.480469-6.660156 21.28125-31.800781 56.859375-50.789062 95.167969-50.789062 38.195312 0 73.71875 18.898437 95.015625 50.558594 4.625 6.871093 13.945312 8.695312 20.816406 4.070312 6.875-4.621094 8.699219-13.945312 4.074219-20.816406-16.921875-25.152344-40.953125-43.914063-68.460938-54.371094 16.082031-14.144531 26.257813-34.851562 26.257813-57.898438 0-42.527343-34.597656-77.125-77.121094-77.125-42.527344 0-77.125 34.597657-77.125 77.125 0 22.882813 10.027344 43.457032 25.910156 57.59375-27.953125 10.433594-52.367187 29.417969-69.464844 54.96875-4.609374 6.882813-2.761718 16.203126 4.121094 20.808594zm116.558594-180.496094c25.984375 0 47.121094 21.140626 47.121094 47.125 0 25.980469-21.136719 47.121094-47.121094 47.121094s-47.121094-21.140625-47.121094-47.121094c0-25.984374 21.136719-47.125 47.121094-47.125zm0 0"/><path d="m304.308594 289.585938h-24.617188c-3.664062 0-6.910156-1.410157-8.042968-4.871094l-7.605469-23.398438c-1.265625-3.867187-4.652344-5.800781-8.042969-5.800781-3.386719 0-6.773438 1.933594-8.039062 5.800781l-7.609376 23.398438c-1.128906 3.460937-4.375 4.871094-8.039062 4.871094h-24.617188c-8.191406 0-11.597656 11.339843-4.972656 16.117187l19.917969 14.367187c2.960937 2.140626 4.203125 5.929688 3.070313 9.386719l-8.011719 23.246094c-.339844 1.035156-.472657 2.050781-.433594 3.015625.246094 6.242188 8.109375 10.511719 13.847656 6.371094l19.917969-14.371094c1.480469-1.070312 3.226562-1.601562 4.96875-1.601562 1.746094 0 3.488281.535156 4.972656 1.601562l19.914063 14.371094c5.742187 4.140625 13.566406-.128906 13.851562-6.371094.042969-.964844-.089843-1.976562-.425781-3.015625l-8.023438-23.246094c-1.128906-3.457031.109376-7.246093 3.074219-9.386719l19.917969-14.367187c6.621094-4.777344 3.21875-16.117187-4.972656-16.117187zm0 0"/><path d="m418.535156 336.34375h-24.621094c-3.660156 0-6.90625-1.410156-8.039062-4.867188l-7.605469-23.398437c-1.265625-3.867187-4.65625-5.800781-8.042969-5.800781-3.386718 0-6.777343 1.933594-8.042968 5.800781l-7.605469 23.398437c-1.132813 3.457032-4.378906 4.867188-8.042969 4.867188h-24.617187c-8.191407 0-11.597657 11.339844-4.96875 16.121094l19.914062 14.367187c2.964844 2.136719 4.203125 5.925781 3.074219 9.386719l-8.015625 23.246094c-.335937 1.035156-.472656 2.046875-.433594 3.011718.25 6.246094 8.113281 10.515626 13.851563 6.375l19.917968-14.371093c1.480469-1.070313 3.226563-1.605469 4.96875-1.605469 1.746094 0 3.488282.535156 4.96875 1.605469l19.917969 14.371093c5.742188 4.140626 13.566407-.132812 13.851563-6.375.042968-.964843-.089844-1.976562-.425782-3.011718l-8.023437-23.246094c-1.128906-3.460938.109375-7.25 3.074219-9.386719l19.914062-14.367187c6.625-4.78125 3.222656-16.121094-4.96875-16.121094zm0 0"/><path d="m190.082031 336.34375h-24.617187c-3.664063 0-6.910156-1.410156-8.042969-4.867188l-7.605469-23.398437c-1.265625-3.867187-4.65625-5.800781-8.042968-5.800781-3.386719 0-6.777344 1.933594-8.042969 5.800781l-7.605469 23.398437c-1.132812 3.457032-4.378906 4.867188-8.039062 4.867188h-24.621094c-8.191406 0-11.597656 11.339844-4.96875 16.121094l19.914062 14.367187c2.964844 2.136719 4.203125 5.925781 3.074219 9.386719l-8.015625 23.246094c-.335938 1.035156-.472656 2.046875-.433594 3.011718.25 6.246094 8.113282 10.515626 13.851563 6.375l19.917969-14.371093c1.480468-1.070313 3.226562-1.605469 4.96875-1.605469 1.746093 0 3.488281.535156 4.96875 1.605469l19.917968 14.371093c5.742188 4.140626 13.566406-.132812 13.851563-6.375.042969-.964843-.089844-1.976562-.425781-3.011718l-8.023438-23.246094c-1.128906-3.460938.109375-7.25 3.074219-9.386719l19.917969-14.367187c6.621093-4.78125 3.21875-16.121094-4.972657-16.121094zm0 0"/></g></svg>